<?xml version="1.0" standalone="no"?>
<!DOCTYPE svg PUBLIC "-//W3C//DTD SVG 20010904//EN"
 "http://www.w3.org/TR/2001/REC-SVG-20010904/DTD/svg10.dtd">
<svg version="1.0" xmlns="http://www.w3.org/2000/svg"
 width="385.000000pt" height="385.000000pt" viewBox="0 0 385.000000 385.000000"
 preserveAspectRatio="xMidYMid meet">
<metadata>
Created by potrace 1.11, written by Peter Selinger 2001-2013
</metadata>
<g transform="translate(0.000000,385.000000) scale(0.100000,-0.100000)"
fill="#000000" stroke="none">
<path d="M1750 3721 c-280 -139 -568 -244 -820 -300 -105 -24 -121 -27 -360
-65 -91 -15 -182 -31 -204 -37 l-38 -10 6 -217 c11 -363 40 -797 63 -922 69
-383 210 -784 363 -1035 22 -36 40 -68 40 -71 0 -9 123 -189 199 -289 95 -127
298 -331 466 -469 169 -139 401 -285 456 -286 44 0 252 116 369 205 337 260
582 535 791 887 208 350 358 813 398 1233 32 324 54 947 35 964 -11 9 -84 25
-219 46 -499 77 -746 154 -1224 381 -74 35 -141 64 -150 63 -9 0 -86 -35 -171
-78z m414 -887 c14 -14 16 -94 16 -738 0 -548 -3 -725 -12 -734 -19 -19 -66
-15 -78 7 -7 13 -10 260 -10 730 0 698 0 711 20 731 24 24 43 25 64 4z m-1002
-251 c17 -15 18 -43 18 -485 0 -455 -1 -469 -20 -488 -24 -24 -29 -24 -58 -4
l-22 15 0 471 c0 425 2 473 17 490 20 22 41 23 65 1z m802 1 c14 -14 16 -72
16 -489 l0 -474 -22 -15 c-29 -20 -34 -20 -58 4 -19 19 -20 33 -20 487 0 420
2 468 17 485 20 22 46 23 67 2z m400 0 c14 -14 16 -72 16 -488 0 -354 -3 -475
-12 -484 -19 -19 -66 -15 -78 7 -6 13 -10 181 -10 478 0 399 2 461 16 481 18
26 46 28 68 6z m402 2 c18 -14 19 -32 22 -480 l3 -466 -25 -25 c-29 -29 -63
-24 -78 14 -6 17 -9 190 -6 484 3 439 4 459 23 473 24 18 36 18 61 0z m-1808
-202 c22 -15 22 -18 22 -280 0 -164 -4 -273 -10 -285 -7 -12 -21 -19 -40 -19
-19 0 -33 7 -40 19 -6 12 -10 120 -10 282 0 230 2 265 17 281 20 22 32 23 61
2z m404 -1 c17 -15 18 -37 18 -280 0 -163 -4 -272 -10 -284 -7 -12 -21 -19
-40 -19 -19 0 -33 7 -40 19 -6 12 -10 121 -10 285 0 262 0 265 22 280 28 20
37 20 60 -1z m400 0 c17 -15 18 -37 18 -289 0 -266 0 -273 -21 -288 -12 -8
-29 -12 -38 -9 -39 14 -41 28 -41 302 0 232 2 267 17 283 20 22 41 23 65 1z
m800 0 c17 -15 18 -37 18 -288 0 -286 -1 -295 -46 -295 -52 0 -54 10 -54 296
0 251 1 265 20 284 24 24 38 25 62 3z m402 1 c14 -13 16 -54 16 -288 0 -287
-1 -296 -46 -296 -50 0 -54 24 -54 296 0 239 1 253 21 278 23 30 41 33 63 10z
m-2196 -156 c8 -8 12 -51 12 -129 0 -128 -8 -149 -55 -149 -37 0 -45 28 -45
152 0 123 6 138 50 138 14 0 31 -5 38 -12z m800 0 c8 -8 12 -52 12 -133 0
-131 -5 -145 -52 -145 -40 0 -48 25 -48 152 0 123 6 138 50 138 14 0 31 -5 38
-12z m1610 -122 c3 -137 -2 -156 -44 -156 -41 0 -54 34 -54 142 0 124 11 150
59 146 l36 -3 3 -129z"/>
</g>
</svg>
